<?xml version="1.0" encoding="UTF-8"?>
<!DOCTYPE svg PUBLIC "-//W3C//DTD SVG 1.1//EN" "http://www.w3.org/Graphics/SVG/1.1/DTD/svg11.dtd">
<!-- Creator: CorelDRAW X5 -->
<svg xmlns="http://www.w3.org/2000/svg" xml:space="preserve" width="5.9996mm" height="5.9992mm" style="shape-rendering:geometricPrecision; text-rendering:geometricPrecision; image-rendering:optimizeQuality; fill-rule:evenodd; clip-rule:evenodd"
viewBox="0 0 0.109055 0.109047"
 xmlns:xlink="http://www.w3.org/1999/xlink">
 <defs>
  <style type="text/css">
   <![CDATA[
    .fil0 {fill:#B0CB1F}
   ]]>
  </style>
 </defs>
 <g id="Слой_x0020_1">
  <metadata id="CorelCorpID_0Corel-Layer"/>
  <path class="fil0" d="M0.0551108 0.0968561c-0.00982648,0 -0.0159976,-0.00225031 -0.0232593,-0.0065419 -0.00135419,-0.000799788 -0.004108,-0.00284288 -0.00521316,-0.00389533 -0.00171954,-0.00163775 -0.00281743,-0.00250661 -0.00450608,-0.00459878l-0.00228121 -0.00292104 -0.00202855 -0.00317552c-0.00063983,-0.00114697 -0.00119786,-0.00221396 -0.00177953,-0.00342455 -0.00391169,-0.00814693 -0.00493869,-0.0188786 -0.00270292,-0.0277381 0.000714356,-0.00283198 0.00154141,-0.00531677 0.00266475,-0.0077434 0.00222123,-0.00479146 0.00490052,-0.00858318 0.008565,-0.0122495 0.00399349,-0.00399349 0.00694725,-0.00589116 0.0121695,-0.00852501 0.00213216,-0.00107426 0.0053095,-0.00207036 0.00772886,-0.00267929 0.00715265,-0.00180134 0.0151323,-0.00152869 0.0221559,0.000548945 0.0033991,0.00100337 0.0059875,0.00217579 0.00910122,0.00390805 0.00217215,0.00120877 0.00353543,0.00227576 0.00540584,0.00370084 0.00104518,0.000796152 0.00247389,0.00218306 0.00339728,0.00310645 0.00119968,0.00119968 0.00263203,0.0027629 0.00366266,0.00414254 0.00946476,0.0126839 0.0113697,0.0287978 0.00488052,0.0433667 -0.00140508,0.00315553 -0.00429159,0.00778521 -0.00665096,0.0102627 -0.000278108,0.000290832 -0.000327186,0.000425342 -0.000588935,0.00071072 -0.00217033,0.00234483 -0.00442792,0.00423524 -0.00701814,0.00610929 -0.00626743,0.00453334 -0.0150869,0.00763615 -0.0237028,0.00763615zm-0.0551108 -0.0434012c0,0.00777794 0.00077434,0.0121695 0.00306101,0.0190549 0.00149233,0.00449517 0.00415163,0.00941023 0.00682546,0.0132783 0.000957928,0.00138509 0.00192858,0.00252115 0.0029374,0.00380444l0.00234301 0.00262294c0.00204309,0.00201946 0.00385716,0.00377354 0.00618927,0.00552035 0.000681637,0.000510773 0.00127784,0.000997917 0.00196493,0.00146325 0.00399712,0.00271201 0.00859226,0.00524588 0.0132074,0.0067782 0.00169773,0.000565304 0.0033173,0.00107426 0.00519498,0.00154686 0.00796516,0.00201038 0.0175063,0.00204128 0.0254969,2.36301e-005 0.00419889,-0.00105972 0.00834324,-0.00252478 0.0121513,-0.00452425 0.00480236,-0.00251933 0.00619654,-0.00366812 0.0100864,-0.00670731 0.000392623,-0.000307191 0.000534404,-0.000503503 0.000877949,-0.000777975 0.000396258,-0.000318097 0.000510773,-0.000423524 0.000872496,-0.000783428l0.00177589 -0.00165229c0.00373355,-0.00373355 0.00794153,-0.00928844 0.0101737,-0.0139527 0.00185587,-0.00387897 0.00325005,-0.00738531 0.00431885,-0.011646 0.00208127,-0.0082978 0.00211398,-0.0175753 2.36301e-005,-0.0258749 -0.000890673,-0.00353906 -0.00200856,-0.00687454 -0.00346999,-0.00989374 -0.00141417,-0.00292468 -0.00237392,-0.00477328 -0.00414981,-0.00743984 -0.00142508,-0.00213398 -0.00217579,-0.00292104 -0.00361359,-0.00478237 -0.00325005,-0.00420616 -0.00996645,-0.00969015 -0.0145107,-0.0122186 -0.000747074,-0.000414435 -0.00138509,-0.000767069 -0.00212671,-0.00118332 -0.00317007,-0.00177407 -0.00851592,-0.00364812 -0.0122204,-0.00457333 -0.0120568,-0.00301556 -0.0258622,-0.00154323 -0.0368193,0.00398076 -0.00430795,0.00217033 -0.00733805,0.00418434 -0.0110934,0.00723626 -0.0016941,0.001376 -0.00524406,0.00487143 -0.00667277,0.00669095 -0.000512591,0.000650736 -0.00097974,0.00119059 -0.00148688,0.00182497 -0.00050532,0.000634377 -0.000972469,0.00128875 -0.00145052,0.00197947 -0.000263566,0.000378081 -0.000416253,0.000621653 -0.00067982,0.000974287 -0.00145961,0.00195221 -0.00312644,0.00529496 -0.00419707,0.00751073 -0.00292831,0.00604567 -0.00500958,0.0145543 -0.00500958,0.0217197zm0.049316 -0.0334693l0 0.0426941c0,0.00270655 0.00285015,0.00555852 0.00555671,0.00555852 0.00300829,0 0.00350816,-0.000810694 0.00599659,-0.00228485l0.00548036 -0.00338819c0.000329004,-0.000196312 0.000627106,-0.000359904 0.000965198,-0.000572575l0.00277563 -0.00171773c0.00145779,-0.000865225 0.0110316,-0.00662733 0.0118405,-0.00743803 0.00402802,-0.0040262 0.000712538,-0.0103809 -0.00399712,-0.0103809 -0.00256659,0 -0.003081,0.00066346 -0.00495868,0.00178135 -0.0012833,0.000761616 -0.00250479,0.0015305 -0.00382989,0.00231938 -0.00214307,0.00127602 -0.00572757,0.00363358 -0.00764888,0.00465149 0,-0.0070963 0,-0.0141926 0,-0.0212889 0,-0.00303374 0.000254478,-0.00783065 -0.00013451,-0.0105081 -0.000361722,-0.00248116 -0.00279926,-0.00498413 -0.00566032,-0.00498413 -0.00194676,0 -0.00329731,0.000392623 -0.00464604,0.00174136 -0.000765251,0.000767069 -0.00173954,0.00235574 -0.00173954,0.00381717z"/>
 </g>
</svg>
