<?xml version="1.0" encoding="UTF-8"?>
<!DOCTYPE svg PUBLIC "-//W3C//DTD SVG 1.1//EN" "http://www.w3.org/Graphics/SVG/1.1/DTD/svg11.dtd">
<!-- Creator: CorelDRAW X5 -->
<svg xmlns="http://www.w3.org/2000/svg" xml:space="preserve" width="4.6654mm" height="6.9946mm" style="shape-rendering:geometricPrecision; text-rendering:geometricPrecision; image-rendering:optimizeQuality; fill-rule:evenodd; clip-rule:evenodd"
viewBox="0 0 0.0712376 0.106803"
 xmlns:xlink="http://www.w3.org/1999/xlink">
 <defs>
  <style type="text/css">
   <![CDATA[
    .fil0 {fill:#B0CB1F}
   ]]>
  </style>
 </defs>
 <g id="Слой_x0020_1">
  <metadata id="CorelCorpID_0Corel-Layer"/>
  <path class="fil0" d="M0.0356203 0.0204579c0.00837524,0 0.0151579,0.00678723 0.0151579,0.0151609 0,0.00836913 -0.00678264,0.0151548 -0.0151579,0.0151548 -0.00837371,0 -0.0151579,-0.0067857 -0.0151579,-0.0151548 0,-0.00837371 0.00678417,-0.0151609 0.0151579,-0.0151609zm0 -0.0204594c0.0196746,0 0.0356173,0.0159473 0.0356173,0.0356203 0,0.0069842 -0.00200792,0.0134966 -0.0054878,0.0189935l-0.0147578 0.025567 -0.0153717 0.0266236 -0.0153717 -0.0266236 -0.0147609 -0.025567c-0.00347683,-0.00549697 -0.0054878,-0.0120093 -0.0054878,-0.0189935 0,-0.019673 0.0159473,-0.0356203 0.0356203,-0.0356203z"/>
 </g>
</svg>
