<?xml version="1.0" encoding="UTF-8"?>
<!DOCTYPE svg PUBLIC "-//W3C//DTD SVG 1.1//EN" "http://www.w3.org/Graphics/SVG/1.1/DTD/svg11.dtd">
<!-- Creator: CorelDRAW X5 -->
<svg xmlns="http://www.w3.org/2000/svg" xml:space="preserve" width="457.128mm" height="48.0235mm" style="shape-rendering:geometricPrecision; text-rendering:geometricPrecision; image-rendering:optimizeQuality; fill-rule:evenodd; clip-rule:evenodd"
viewBox="0 0 78.235 8.21896"
 xmlns:xlink="http://www.w3.org/1999/xlink">
 <defs>
  <style type="text/css">
   <![CDATA[
    .fil0 {fill:#529000;fill-rule:nonzero}
   ]]>
  </style>
 </defs>
 <g id="Слой_x0020_1">
  <metadata id="CorelCorpID_0Corel-Layer"/>
  <path class="fil0" d="M51.7633 4.78606l6.84578e-005 0c0.430069,0 0.819474,0.174362 1.10133,0.45622 0.281858,0.281858 0.45622,0.671263 0.45622,1.10133l0 6.84578e-005 0 3.42289e-005c0,0.430086 -0.174379,0.819509 -0.456237,1.10137 -0.281499,0.281499 -0.670887,0.455638 -1.10135,0.455621l0 0.000599006 -3.42289e-005 0 -3.42289e-005 0c-0.430086,0 -0.819491,-0.174362 -1.10137,-0.45622 -0.281858,-0.281858 -0.45622,-0.671297 -0.45622,-1.10137l0 -3.42289e-005 0 -3.42289e-005c0,-0.430086 0.174362,-0.819491 0.45622,-1.10137 0.281499,-0.281499 0.670887,-0.455638 1.10137,-0.455621l0 -0.000599006 3.42289e-005 0zm-0.412903 -1.0828l-1.55006 -1.55006 -1.2267 1.22668c-0.212989,0.213006 -0.319493,0.493974 -0.319493,0.775028 0,0.281054 0.106503,0.562022 0.319493,0.775011l0.00145473 0.00145473c0.212818,0.212048 0.49317,0.318072 0.77359,0.318072 0.281054,0 0.562022,-0.106503 0.775011,-0.319493l1.2267 -1.2267zm-1.3366 -1.76351l1.55006 1.55006 1.22668 -1.22668c0.212989,-0.213006 0.31951,-0.493974 0.31951,-0.775028 0,-0.281054 -0.10652,-0.562022 -0.31951,-0.775011l-1.71145e-005 -1.71145e-005c-0.212989,-0.212989 -0.493974,-0.31951 -0.775028,-0.31951 -0.281054,0 -0.562022,0.106503 -0.775011,0.31951l-1.22668 1.22668zm2.99017 -1.44013l1.71145e-005 1.71145e-005c0.271949,0.271949 0.407957,0.630274 0.407957,0.988462 0,0.358188 -0.136009,0.716514 -0.407957,0.98848l-2.66683 2.66683c-0.271949,0.271949 -0.630274,0.40794 -0.988462,0.40794 -0.358188,0 -0.716531,-0.135991 -0.98848,-0.40794l-0.0158993 -0.0158993 -0.000325175 -0.000650349c-0.261132,-0.269844 -0.391733,-0.620964 -0.391733,-0.971947 0,-0.358188 0.135991,-0.716514 0.40794,-0.98848l2.66683 -2.66681c0.271949,-0.271966 0.630274,-0.407957 0.988462,-0.407957 0.358188,0 0.716514,0.135991 0.98848,0.407957zm0.22526 4.19119l1.76313 -1.76317c-0.226801,-0.178264 -0.50082,-0.26743 -0.774857,-0.26743 -0.321375,0 -0.642768,0.122625 -0.887932,0.36779 -0.245165,0.245165 -0.367772,0.566557 -0.367772,0.887932 0,0.274037 0.0891492,0.548073 0.26743,0.774874zm1.9766 -1.54973l-1.76313 1.76317c0.226784,0.17823 0.500786,0.267413 0.774806,0.267413 0.321375,0 0.642768,-0.122608 0.887966,-0.36779 0.245165,-0.245182 0.367772,-0.566574 0.367772,-0.887949 0,-0.27402 -0.0891663,-0.548056 -0.267413,-0.77484zm-2.08971 -0.326527c0.304141,-0.304141 0.702771,-0.456237 1.10138,-0.456237 0.398613,0 0.79726,0.152096 1.10142,0.456237 0.304141,0.304141 0.45622,0.702771 0.45622,1.10137 0,0.398596 -0.152113,0.797243 -0.45622,1.1014 -0.304158,0.304141 -0.702805,0.456237 -1.10142,0.456237 -0.398613,0 -0.797243,-0.152096 -1.10138,-0.456237 -0.304141,-0.304158 -0.45622,-0.702788 -0.45622,-1.10138 0,-0.398613 0.152079,-0.797243 0.45622,-1.10138zm-2.59953 3.37817l2.49344 0c-0.0343145,-0.286445 -0.165035,-0.543264 -0.35877,-0.737 -0.227194,-0.227194 -0.541142,-0.367772 -0.887881,-0.367772l-6.84578e-005 0 -3.42289e-005 0 0 -0.000599006c-0.346328,0 -0.660327,0.140783 -0.887915,0.368372 -0.193736,0.193753 -0.324473,0.450555 -0.35877,0.737zm2.49344 0.301899l-2.49346 0c0.0343145,0.286427 0.165035,0.543247 0.358787,0.737 0.227229,0.227211 0.541159,0.367772 0.887915,0.367772l3.42289e-005 0 3.42289e-005 0 0 0.000599006c0.346311,0 0.66031,-0.140783 0.887898,-0.368372 0.193753,-0.193753 0.32449,-0.450555 0.358787,-0.737z"/>
  <path class="fil0" d="M4.50588 0.675405l1.63161 1.29356 0.117901 0.093462 -0.0937359 0.11821 -1.16856 1.47395c0.469672,0.268526 0.851735,0.644924 1.12004,1.08625 0.281738,0.463477 0.437685,0.997636 0.437685,1.55285 0,0.260807 -0.0346054,0.519886 -0.102173,0.771126 -0.04905,0.182474 -0.115882,0.360995 -0.199811,0.533235l1.29842 0 0 0.301899 -7.54725 0 0 -0.301899 5.90998 0c0.107393,-0.193393 0.190296,-0.39863 0.247407,-0.611072 0.0605338,-0.225055 0.0915281,-0.458 0.0915281,-0.693289 0,-0.500615 -0.139962,-0.981172 -0.392845,-1.39717 -0.249255,-0.410011 -0.60871,-0.758461 -1.05252,-1.00286l-1.67677 2.11497 -0.0934449 0.117884 -0.118227 -0.0937187 -0.287523 -0.227947 -0.400358 0.504962 -0.0934449 0.117901 -0.118227 -0.0937359 -0.820108 -0.650195 -0.117884 -0.0934449 0.0937187 -0.118227 0.400085 -0.504637 -0.287865 -0.228221 -0.117884 -0.0934449 0.0937187 -0.118227 3.03487 -3.82801 0.093462 -0.117884 0.11821 0.0937187zm-4.14678 6.28835l1.71145e-005 0 2.69014 0 0 0.301899 -2.69014 0 -1.71145e-005 0 0 -0.301899zm2.03238 -1.34609l-0.464709 -0.36844 -0.119305 -0.0945745 -0.306623 0.386752 0.584014 0.463014 0.306623 -0.386752zm-0.446208 -0.738266l0.751615 0.595874 0.117901 0.093462 -1.71145e-005 1.71145e-005 0.169638 0.134485 2.84769 -3.5919 -1.39551 -1.10638 -2.84769 3.59191 0.356374 0.282525zm3.01543 -4.80064l1.65398 1.31128 -0.187506 0.235837 -1.65398 -1.31128 0.187506 -0.235837z"/>
  <path class="fil0" d="M40.3612 1.52943l0.0866505 -0.413656c-0.0294026,-0.014359 -0.0569398,-0.0337155 -0.0813279,-0.0581036l-3.42289e-005 -3.42289e-005 -0.154698 -0.15468c-0.0593358,-0.0593358 -0.0890123,-0.137412 -0.0890123,-0.2153 0,-0.0519081 0.0134006,-0.104039 0.0401676,-0.150727l-0.320006 -0.320006c-0.0190826,-0.0190826 -0.0286667,-0.0442237 -0.0286667,-0.0692451 0,-0.0250727 0.00958409,-0.0501625 0.0286667,-0.0692451l0.00812937 -0.00812937c0.0190826,-0.0190826 0.0441724,-0.0286667 0.0692451,-0.0286667 0.0250213,0 0.0501625,0.00958409 0.0692451,0.0286667l0.319938 0.319938c0.0466198,-0.0267328 0.0987675,-0.0401163 0.150813,-0.0401163 0.0775456,0 0.155331,0.0297107 0.214667,0.0890123l0.000599006 0 1.71145e-005 1.71145e-005 0.154698 0.15468 0 0.000599006c0.0243025,0.0243196 0.0436247,0.051737 0.0579838,0.0809685l0.413793 -0.0868387 0.0625876 -0.0131268 0.0529692 0.0361286 0.468115 0.319253 0.20243 0.138028 1.13385 0.773145 0.00304637 0.00208796 0.0126647 0.00867703 0.010919 0.011364 0.000427861 0.000444976 0.0011809 0.0011809c0.117747,0.12461 0.11299,0.329864 0.00953275,0.561559 -0.0853498,0.191186 -0.240064,0.411209 -0.444343,0.615487 -0.204278,0.204278 -0.424319,0.358993 -0.615504,0.444343 -0.231713,0.103474 -0.436983,0.108215 -0.561559,-0.00953275l-0.0102687 -0.0097039 -0.00800956 -0.0109361 -0.00280677 -0.00383364 -0.00294369 -0.00412458 -0.223446 -0.327742 -3.11875 3.11875c-0.112134,0.112134 -0.259797,0.168218 -0.407324,0.168218 -0.0966967,0 -0.193462,-0.0240972 -0.280232,-0.0722743l-0.729196 0.729196c-0.0969876,0.0969876 -0.145507,0.225055 -0.145507,0.353208 0,0.128153 0.0485024,0.256203 0.145507,0.353208 0.0969705,0.0969705 0.225055,0.14549 0.353191,0.14549 0.128153,0 0.256203,-0.0485024 0.353208,-0.145507l0.660481 -0.660481 2.40561 -2.40559 1.71145e-005 -1.71145e-005c0.155553,-0.155553 0.360995,-0.233338 0.566642,-0.233321l0 -0.000599006c0.205271,0 0.410696,0.0779906 0.566642,0.233937l1.71145e-005 1.71145e-005 1.71145e-005 1.71145e-005c0.15593,0.155947 0.23392,0.361337 0.23392,0.566625 0,0.205271 -0.0779906,0.410678 -0.23392,0.566625l-1.71145e-005 1.71145e-005 -1.87005 1.87003 -0.213451 -0.213451 1.87005 -1.87003 1.71145e-005 -1.71145e-005c0.0969705,-0.0969876 0.145473,-0.225038 0.145473,-0.353174 0,-0.128153 -0.0485024,-0.256186 -0.145473,-0.353174l-1.71145e-005 -1.71145e-005 -1.71145e-005 -1.71145e-005c-0.0969705,-0.0969705 -0.225055,-0.14549 -0.353191,-0.14549l0 -0.000599006c-0.127759,0 -0.25581,0.0486906 -0.353191,0.146072l-1.71145e-005 1.71145e-005 -3.07482 3.0748 -6.84578e-005 -6.84578e-005c-0.154852,0.150196 -0.356409,0.225295 -0.557863,0.225295 -0.205271,0 -0.410696,-0.0779906 -0.566642,-0.233937 -0.155964,-0.155964 -0.233955,-0.361372 -0.233955,-0.56666 0,-0.205288 0.0779906,-0.410713 0.233955,-0.56666l0.726577 -0.726577c-0.0528323,-0.089868 -0.079257,-0.191186 -0.079257,-0.292452 0,-0.147527 0.0560841,-0.29519 0.168218,-0.407324l3.27283 -3.2728 -0.346123 -0.507563 -0.0230018 -0.115557zm0.499075 -0.540474c-0.00896797,0.0121855 -0.0189628,0.0238404 -0.0299845,0.0348621l-0.000599006 0.000599006 -0.0329282 0.0329282 0.000290946 0.000290946 -3.42289e-005 3.42289e-005c-0.0112784,0.0112784 -0.0232414,0.0215129 -0.0357521,0.0306349l-0.0921442 0.439824 0.275269 0.403662 0.760036 -0.760019 -0.403627 -0.275269 -0.440526 0.0924523zm0.357555 1.87848l-0.0279992 -0.0410747 -0.28641 -0.420006 -3.23248 3.23244c-0.0531746,0.0531746 -0.0797705,0.123481 -0.0797705,0.193873 0,0.0703917 0.0265959,0.140698 0.0797705,0.193873l1.71145e-005 1.71145e-005c0.0531746,0.0531746 0.123481,0.0797705 0.193873,0.0797705 0.0703917,0 0.140698,-0.0265959 0.193873,-0.0797705l3.15912 -3.15912zm-0.169587 -0.783397l0.00143761 0.00210508 0.0404928 0.0594043 1.71145e-005 0 0.294779 0.432294 0.0785553 0.115197 0.0736435 0.108009 0.0705287 0.10344 0.244925 0.35925c0.0341091,0.0173883 0.116122,-0.00289234 0.224679,-0.0513605 0.15824,-0.0706485 0.345438,-0.203782 0.524695,-0.383039 0.179257,-0.179257 0.312407,-0.366455 0.383039,-0.524678 0.048451,-0.108506 0.0687316,-0.190518 0.0513776,-0.224627l-1.11805 -0.76238 -0.0616634 -0.0420502 -0.808453 0.808435z"/>
  <path class="fil0" d="M19.8177 1.79796c-0.0754576,-0.0754576 -0.161115,-0.132979 -0.251908,-0.172565 -0.0951906,-0.0415026 -0.196525,-0.0641621 -0.298202,-0.0679102l-0.139876 -0.00515145 -0.00516857 -0.139894c-0.00374807,-0.101677 -0.0263905,-0.202995 -0.067893,-0.298185 -0.0395857,-0.0907751 -0.0971245,-0.176433 -0.172582,-0.251908 -0.160397,-0.160397 -0.370699,-0.240612 -0.58095,-0.240612 -0.210268,0 -0.420553,0.0801983 -0.58095,0.240612 -0.160397,0.160397 -0.240629,0.370699 -0.240629,0.58095 0,0.210268 0.0802326,0.420571 0.240629,0.580967l-0.000290946 0.000290946 0.00622966 0.00617832 0.00838608 0.00809514 0.110713 0.10688 -0.108352 0.108334 -2.75445 2.75447 -0.107924 0.107941 -0.106709 -0.110303 -0.00665752 -0.00689712 -0.000273831 0.000273831 -0.00794111 -0.00800956 -0.000290946 0.000290946c-0.160397,-0.160414 -0.370682,-0.240629 -0.58095,-0.240629 -0.210251,0 -0.420553,0.0802326 -0.580967,0.240629 -0.160414,0.160397 -0.240612,0.370682 -0.240612,0.58095 0,0.210251 0.0802154,0.420553 0.240612,0.580967 0.0754747,0.0754576 0.161133,0.132979 0.251891,0.172565 0.0952077,0.0415026 0.196525,0.064145 0.298202,0.0679102l0.139876 0.00518568 0.00516857 0.139859c0.00376518,0.101677 0.0264076,0.202995 0.0679102,0.298202 0.0395857,0.0907751 0.0971074,0.176416 0.172582,0.251891 0.160397,0.160397 0.370699,0.240629 0.58095,0.240629 0.210268,0 0.420571,-0.0802326 0.580967,-0.240629l3.42289e-005 -3.42289e-005c0.16038,-0.16038 0.240595,-0.370665 0.240595,-0.580916 0,-0.210251 -0.0802154,-0.420536 -0.240595,-0.580916l-3.42289e-005 -3.42289e-005 0.000290946 -0.000290946 -0.00792399 -0.00782131 -1.71145e-005 1.71145e-005 -0.0100975 -0.00968678 -0.111039 -0.10652 0.108677 -0.108694 2.75467 -2.75466 0.108694 -0.108677 0.10652 0.111039 0.00968678 0.0100975 -1.71145e-005 1.71145e-005 0.00780419 0.00792399 0.000290946 -0.000290946c0.160414,0.160397 0.370699,0.240612 0.58095,0.240612 0.210268,0 0.420553,-0.0802154 0.580967,-0.240612 0.160397,-0.160414 0.240612,-0.370699 0.240612,-0.580967 0,-0.210268 -0.0802154,-0.420553 -0.240612,-0.580967zm-0.131627 -0.448518c0.125894,0.0548689 0.243299,0.133287 0.345079,0.235067 0.219356,0.219373 0.32906,0.506913 0.32906,0.794419 0,0.287506 -0.109704,0.575046 -0.32906,0.794419 -0.219373,0.219356 -0.506913,0.32906 -0.794419,0.32906 -0.248998,0 -0.498013,-0.0823205 -0.702771,-0.246876l-2.55009 2.55007c0.164573,0.204757 0.246893,0.453773 0.246893,0.702788 0,0.287489 -0.109687,0.575011 -0.329042,0.794367l-3.42289e-005 3.42289e-005c-0.219373,0.219373 -0.506913,0.329077 -0.794419,0.329077 -0.287489,0 -0.575029,-0.109704 -0.794402,-0.329077 -0.10178,-0.10178 -0.180198,-0.219185 -0.235084,-0.345062 -0.0386273,-0.0886015 -0.0652916,-0.181276 -0.0799587,-0.275526 -0.0942493,-0.0146671 -0.186924,-0.0413314 -0.275526,-0.0799587 -0.12586,-0.0549032 -0.243265,-0.133287 -0.345062,-0.235067 -0.219373,-0.21939 -0.32906,-0.50693 -0.32906,-0.794419 0,-0.287506 0.109687,-0.575046 0.32906,-0.794402 0.21939,-0.219373 0.50693,-0.329077 0.794419,-0.329077 0.247526,0 0.495087,0.0813279 0.699125,0.243949l2.55079 -2.55081c-0.162604,-0.204056 -0.243932,-0.451599 -0.243932,-0.699125 0,-0.287489 0.109704,-0.575029 0.329077,-0.794402 0.219356,-0.219373 0.506896,-0.32906 0.794402,-0.32906 0.287489,0 0.575029,0.109687 0.794402,0.32906 0.10178,0.101797 0.180198,0.219202 0.235084,0.345079 0.0386273,0.0886015 0.0652916,0.181259 0.0799587,0.275508 0.0942493,0.0146671 0.186907,0.0413314 0.275508,0.0799587z"/>
  <path class="fil0" d="M30.3029 1.76813c-0.177511,-0.177511 -0.411722,-0.266284 -0.646002,-0.266284 -0.23428,0 -0.468491,0.0887727 -0.646002,0.266284l-0.000290946 -0.000290946 -0.043967 0.043967 0 0.000599006 -2.81904 2.81902 -0.793563 0.793563 1.292 1.29199 0.793546 -0.793546 0.756681 -0.756681 -0.975695 -0.975678 0.213451 -0.213451 0.975695 0.975678 0.450726 -0.450709 -0.975695 -0.975678 0.213451 -0.213451 0.975695 0.975678 0.450709 -0.450709 -0.975695 -0.975712 0.213451 -0.213451 0.975695 0.975712 0.520587 -0.520587 0.000290946 0.000290946 0.043967 -0.043967 0 -0.000599006c0.177511,-0.177511 0.266284,-0.411722 0.266284,-0.646002 0,-0.23428 -0.0887898,-0.468491 -0.266284,-0.645985zm-5.30018 5.13581l0.701675 -0.701658 -0.670544 -0.670561 -0.0958581 -0.0958752 -0.222899 -0.222899 0.213451 -0.213451 0.212031 0.212048 0.793563 -0.793563 2.81904 -2.81902 0.000290946 0.000290946 0.043967 -0.043967 0 -0.000599006c0.23647,-0.236488 0.548039,-0.354731 0.859454,-0.354731 0.274927,0 0.549956,0.0921784 0.773351,0.276501l1.47643 -1.47645 0.213451 0.213451 -1.48256 1.48257c0.155656,0.212664 0.23351,0.465428 0.23351,0.718088 0,0.311415 -0.118261,0.622966 -0.354731,0.859454l-0.000290946 -0.000290946 -0.043967 0.043967 0 0.000599006 -2.81906 2.81904 -0.793546 0.793546 0.261132 0.261149 -0.213451 0.213451 -0.261132 -0.261132 -1.71145e-005 1.71145e-005 -0.106726 -0.106743 -0.621443 -0.621443 -0.701675 0.701658 0.626338 0.626338 -0.213451 0.213451 -1.46614 -1.46614 0.213451 -0.213451 0.626355 0.626355z"/>
  <path class="fil0" d="M64.2484 1.72456c0.825704,0 1.60362,0.217028 2.28543,0.600067 0.705732,0.396491 1.30831,0.971536 1.75384,1.66818l0.0516685 0.0807973 -0.0516685 0.0807631c-0.445523,0.696644 -1.04811,1.27169 -1.75384,1.66818 -0.681806,0.383039 -1.45973,0.600067 -2.28543,0.600067 -0.825704,0 -1.60362,-0.217028 -2.28543,-0.600067 -0.705732,-0.396491 -1.30831,-0.971536 -1.75384,-1.66818l-0.0516514 -0.0807802 0.0516514 -0.0807802c0.445523,-0.696644 1.04811,-1.27169 1.75384,-1.66818 0.681806,-0.383039 1.45973,-0.600067 2.28543,-0.600067zm0 1.40277c0.261269,0 0.497877,0.105921 0.66909,0.277169 0.171247,0.171213 0.277169,0.407803 0.277169,0.66909 0,0.261269 -0.105921,0.497877 -0.277169,0.66909 -0.171213,0.171247 -0.40782,0.277169 -0.66909,0.277169 -0.261286,0 -0.497877,-0.105921 -0.66909,-0.277169 -0.171247,-0.171213 -0.277169,-0.40782 -0.277169,-0.66909 0,-0.261286 0.105921,-0.497877 0.277169,-0.66909 0.171213,-0.171247 0.407803,-0.277169 0.66909,-0.277169zm0.455638 0.49062c-0.116567,-0.116584 -0.277699,-0.188721 -0.455638,-0.188721 -0.177956,0 -0.339072,0.0721374 -0.455638,0.188721 -0.116584,0.116567 -0.188721,0.277682 -0.188721,0.455638 0,0.177939 0.0721374,0.339072 0.188721,0.455638 0.116567,0.116584 0.277682,0.188721 0.455638,0.188721 0.177939,0 0.339072,-0.0721374 0.455638,-0.188721 0.116584,-0.116567 0.188721,-0.277699 0.188721,-0.455638 0,-0.177956 -0.0721374,-0.339072 -0.188721,-0.455638zm-0.455638 -1.2505c0.47111,0 0.89767,0.19098 1.20641,0.499725 0.308745,0.308745 0.499725,0.735288 0.499725,1.20641 0,0.47111 -0.19098,0.89767 -0.499725,1.20641 -0.308745,0.308745 -0.735305,0.499725 -1.20641,0.499725 -0.471127,0 -0.89767,-0.19098 -1.20641,-0.499725 -0.308745,-0.308745 -0.499725,-0.735305 -0.499725,-1.20641 0,-0.471127 0.19098,-0.89767 0.499725,-1.20641 0.308745,-0.308745 0.735288,-0.499725 1.20641,-0.499725zm0.992963 0.713176c-0.254098,-0.254098 -0.605184,-0.411277 -0.992963,-0.411277 -0.387796,0 -0.738865,0.157179 -0.992963,0.411277 -0.254098,0.254098 -0.411277,0.605167 -0.411277,0.992963 0,0.387779 0.157179,0.738865 0.411277,0.992963 0.254098,0.254098 0.605167,0.411277 0.992963,0.411277 0.387779,0 0.738865,-0.157179 0.992963,-0.411277 0.254098,-0.254098 0.411277,-0.605184 0.411277,-0.992963 0,-0.387796 -0.157179,-0.738865 -0.411277,-0.992963zm1.14508 -0.493016c-0.637582,-0.358188 -1.36531,-0.561149 -2.13804,-0.561149 -0.772735,0 -1.50046,0.20296 -2.13804,0.561149 -0.635819,0.357213 -1.18227,0.868233 -1.59486,1.48598 0.412595,0.617746 0.959043,1.12877 1.59486,1.48598 0.637582,0.358188 1.36531,0.561149 2.13804,0.561149 0.772735,0 1.50046,-0.20296 2.13804,-0.561149 0.635819,-0.357213 1.18227,-0.868233 1.59486,-1.48598 -0.412595,-0.617746 -0.959043,-1.12877 -1.59486,-1.48598z"/>
  <path class="fil0" d="M75.9748 3.98428l-3.50709 3.50709c-0.0907751,0.0907751 -0.217046,0.125979 -0.347252,0.109601l-0.000581891 0c-0.0978776,-0.0123395 -0.198476,-0.0545438 -0.285229,-0.124473l-0.00503165 0 -0.0442237 -0.0442237c-0.0964913,-0.0964913 -0.153927,-0.217456 -0.16868,-0.334468 -0.016447,-0.130532 0.0187746,-0.257008 0.109601,-0.347834l3.88599 -3.88599 0.129676 -0.129676 2.08622 -2.08622c0.0567858,-0.0567858 0.119065,-0.0634262 0.187386,-0.0241656l0.000599006 0c0.0426492,0.0246448 0.080592,0.0866505 0.106589,0.173489 0.0160191,0.0534827 0.0338695,0.128016 0.0507101,0.216823 0.082235,0.433304 0.132654,1.20633 -0.189953,1.52894l-1.34602 1.34602c-0.0573334,0.0573334 -0.166062,0.0852642 -0.293616,0.0950879 -0.112271,0.0086428 -0.24881,0.00624678 -0.36909,0zm-3.72055 3.29364l3.55483 -3.55483 0.0482285 -0.0482114 0.0685263 0.00458667c0.122796,0.00821494 0.276347,0.0132808 0.395635,0.00410747l0.102584 -0.00783842 1.34602 -1.34602c0.232859,-0.232859 0.178213,-0.887076 0.107427,-1.26007 -0.00237891,-0.0125791 -0.00479205,-0.0248331 -0.0072223,-0.0367447l-1.91485 1.91485 -0.129676 0.129676 -3.88599 3.88599c-0.0218209,0.0218209 -0.0296765,0.057265 -0.0247133,0.0966624 0.00660618,0.0524729 0.0347081,0.109207 0.0826628,0.15759l0.00114667 0.00114667c0.0486564,0.0486564 0.105853,0.077152 0.158737,0.0838095l-1.71145e-005 6.84578e-005c0.0395173,0.0048605 0.07491,-0.00301214 0.0966795,-0.0247817z"/>
 </g>
</svg>
