<?xml version="1.0" encoding="UTF-8"?>
<!DOCTYPE svg PUBLIC "-//W3C//DTD SVG 1.1//EN" "http://www.w3.org/Graphics/SVG/1.1/DTD/svg11.dtd">
<!-- Creator: CorelDRAW X5 -->
<svg xmlns="http://www.w3.org/2000/svg" xml:space="preserve" width="38.7783mm" height="8.9956mm" style="shape-rendering:geometricPrecision; text-rendering:geometricPrecision; image-rendering:optimizeQuality; fill-rule:evenodd; clip-rule:evenodd"
viewBox="0 0 4.28025 0.992912"
 xmlns:xlink="http://www.w3.org/1999/xlink">
 <defs>
  <style type="text/css">
   <![CDATA[
    .fil1 {fill:#B0CB1F}
    .fil0 {fill:#B0CB1F;fill-rule:nonzero}
   ]]>
  </style>
 </defs>
 <g id="Слой_x0020_1">
  <metadata id="CorelCorpID_0Corel-Layer"/>
  <path class="fil0" d="M0.465881 0.574173l0 0 0.0107618 -0.0107618c0.0448353,-0.0448353 0.0957414,-0.0389412 0.15231,0.0176273 0.0217223,0.0217223 0.0326938,0.0397469 0.0332788,0.0544161 0.000596038,0.0146692 -0.00919444,0.0322854 -0.0293604,0.0524624l-0.0125278 0.0125168c-0.0129252,-0.0262257 -0.0272191,-0.0471753 -0.0430693,-0.0630255 -0.0303428,-0.0303538 -0.06754,-0.0514911 -0.111393,-0.0632353zm-0.140058 -0.457515c0.178061,0 0.322402,0.14433 0.322424,0.322402l-0.0504977 0c2.20755e-005,-0.150191 -0.121746,-0.271926 -0.271926,-0.271926l0 -0.0504756zm0 0.151438c0.0944169,0 0.170964,0.0765357 0.170964,0.170964l0.0504977 0c0,-0.122309 -0.0991631,-0.22145 -0.221461,-0.22145l0 0.0504867zm-0.255347 -0.115565l0 0 0.0138965 -0.0138855c0.0179915,-0.0180246 0.0344598,-0.0266341 0.0489193,-0.025453 0.0147023,0.000993397 0.0323185,0.0119539 0.0530474,0.0326938 0.0577716,0.0577385 0.0653876,0.107651 0.0233117,0.149738l-0.0134992 0.0135102c-0.0125499,-0.0426719 -0.0350448,-0.0800568 -0.0671537,-0.112155 -0.0180246,-0.0180246 -0.0377822,-0.0326938 -0.0585221,-0.0440406l0 -0.000408397zm-0.070476 0.135466l0 0c0.0101658,-0.0422856 0.0295812,-0.0831915 0.0575508,-0.122541 0.021347,0.0134992 0.0405306,0.0287864 0.0571535,0.0454093 0.028378,0.028378 0.0506964,0.0655753 0.0671316,0.112166l-0.00624737 0.00626944c-0.028963,0.0289741 0.000397359,0.0872975 0.0880812,0.175003 0.0908296,0.0908186 0.15072,0.12136 0.179717,0.092397l0.00624737 -0.00628048c0.047385,0.0125499 0.0855536,0.0331022 0.114517,0.0620653 0.0176273,0.0176162 0.0319212,0.0381685 0.0424843,0.0616569 -0.0360162,0.0258283 -0.0767344,0.0450009 -0.122353,0.0577385 -0.050873,-0.023091 -0.0998254,-0.0512703 -0.147001,-0.0847478 -0.0471753,-0.0334665 -0.0925846,-0.0718447 -0.136051,-0.1153 -0.044438,-0.044438 -0.0835999,-0.0902446 -0.116857,-0.137608 -0.0334775,-0.0471974 -0.0614692,-0.0963154 -0.0843725,-0.146625l0 0.000397359z"/>
  <path class="fil0" d="M3.71454 0.124153c0.0819884,-0.00876397 0.162785,-0.00167774 0.251009,-0.00167774 0.037429,0 0.0821981,0 0.12466,0 0.0447139,0 0.0883351,-0.00259387 0.117927,0.00673303 0.0320095,0.0100885 0.054096,0.0325503 0.0640189,0.0572749 0.0118435,0.0295039 0.00674406,0.0964258 0.00674406,0.129727 0,0.0824851 0,0.181858 0,0.272908 0,0.0425616 0.00579482,0.0977061 -0.00674406,0.129716 -0.00952558,0.0243272 -0.0362259,0.052054 -0.0673854,0.0606524 -0.033323,0.00918341 -0.084505,0.00336651 -0.128038,0.00336651 -0.0893506,0 -0.171218,0 -0.262798,0 -0.0953882,0 -0.1555,0.00601557 -0.185313,-0.0589636 -0.0138303,-0.0301441 -0.0101106,-0.083324 -0.0101106,-0.131404 0,-0.100808 0,-0.183569 0,-0.283019 0,-0.0391178 -0.00407293,-0.0993618 0.0101106,-0.129716 0.014901,-0.0318881 0.0483564,-0.0515794 0.0859178,-0.0555971zm0.15667 0.219011l0 0c0.00790303,0.00875293 0.0173403,0.0054968 0.0235877,0.0185213 0.0120532,0.0251771 0.00743944,0.0793614 -0.0084218,0.0926619 -0.0377932,-0.0234221 -0.0513255,-0.0710941 -0.0724407,-0.111183 -0.0226715,-0.0080134 -0.0696482,-0.00581689 -0.0926619,0.00167774 0.0146471,0.0514138 0.0456411,0.101912 0.077496,0.148248 0.0384445,0.0559172 0.0940085,0.109815 0.185313,0.0876066 0.00710831,-0.0193602 -9.93397e-005,-0.0511048 0.0202212,-0.0539084 0.0127817,-0.00176604 0.0229585,0.012285 0.0286319,0.0185324 0.014029,0.0154308 0.0249563,0.0352987 0.0454866,0.0404313 0.0189187,0.00471312 0.092408,0.00440406 0.0960284,-0.0134771 0.0032451,-0.0160378 -0.0241616,-0.042694 -0.0336982,-0.0522306 -0.0120311,-0.0120311 -0.0396917,-0.0298792 -0.0404313,-0.0454866 -0.000860944,-0.0183889 0.0316563,-0.0490076 0.0404313,-0.0606414 0.0169098,-0.0223956 0.0287423,-0.0345592 0.0336982,-0.0690742 -0.0220865,-0.0116779 -0.0667011,-0.00185434 -0.101084,-0.00505529 -0.0129804,0.0179695 -0.0185876,0.0394489 -0.0320095,0.0623302 -0.00897369,0.0153204 -0.0533454,0.0875073 -0.0555861,0.0235877 -0.000816793,-0.0231682 0.00543057,-0.0642176 0,-0.0859178 -0.0211594,-0.0179915 -0.097673,-0.018709 -0.114561,0.00337755z"/>
  <path class="fil1" d="M2.76558 0.190191c0.0778603,0 0.140919,0.0631028 0.140919,0.140952 0,0.077794 -0.0630587,0.140886 -0.140919,0.140886 -0.0778492,0 -0.140919,-0.0630918 -0.140919,-0.140886 0,-0.0778492 0.0630697,-0.140952 0.140919,-0.140952zm0 -0.190191c0.182907,0 0.331121,0.148248 0.331121,0.331143 0,0.064924 -0.0186648,0.125466 -0.0510165,0.176571l-0.137199 0.237687 -0.142906 0.24751 -0.142895 -0.24751 -0.137232 -0.237687c-0.0323185,-0.0511048 -0.0510165,-0.111647 -0.0510165,-0.176571 0,-0.182895 0.148248,-0.331143 0.331143,-0.331143z"/>
  <path class="fil1" d="M1.5079 0.694881c-0.0596701,0 -0.0971432,-0.0136647 -0.141239,-0.0397249 -0.00822312,-0.00485661 -0.0249453,-0.017263 -0.0316563,-0.0236539 -0.0104417,-0.00994501 -0.0171085,-0.0152211 -0.0273626,-0.0279255l-0.0138524 -0.0177377 -0.0123181 -0.0192829c-0.00388529,-0.00696482 -0.00727388,-0.013444 -0.010806,-0.0207951 -0.0237532,-0.0494712 -0.0299896,-0.114638 -0.0164131,-0.168436 0.00433783,-0.0171968 0.00936001,-0.0322854 0.0161813,-0.0470208 0.0134881,-0.0290955 0.0297578,-0.0521202 0.0520099,-0.0743834 0.0242499,-0.0242499 0.0421863,-0.0357733 0.0738977,-0.051767 0.0129473,-0.00652331 0.0322413,-0.012572 0.0469325,-0.0162696 0.0434335,-0.0109384 0.0918892,-0.00928275 0.134539,0.0033334 0.0206406,0.00609284 0.0363583,0.0132122 0.055266,0.0237312 0.0131901,0.0073401 0.0214684,0.0138193 0.0328263,0.0224729 0.0063467,0.00483453 0.0150224,0.0132563 0.0206295,0.0188635 0.00728491,0.00728491 0.0159827,0.0167774 0.0222411,0.025155 0.0574736,0.0770214 0.0690411,0.174871 0.0296364,0.263339 -0.00853218,0.0191615 -0.0260601,0.0472747 -0.0403871,0.0623191 -0.00168878,0.00176604 -0.00198679,0.00258283 -0.00357623,0.00431576 -0.0131791,0.0142387 -0.026888,0.025718 -0.0426167,0.0370979 -0.0380582,0.0275281 -0.0916133,0.0463696 -0.143932,0.0463696zm-0.334653 -0.263548c0,0.0472305 0.00470208,0.0738977 0.0185876,0.115709 0.00906199,0.0272963 0.0252102,0.0571424 0.0414467,0.0806307 0.00581689,0.00841076 0.0117111,0.0153094 0.017837,0.023102l0.0142277 0.0159275c0.0124064,0.0122629 0.0234221,0.0229144 0.0375835,0.0335216 0.00413916,0.00310161 0.00775954,0.00605972 0.0119318,0.00888539 0.024272,0.0164683 0.0521754,0.0318549 0.0802003,0.0411598 0.0103093,0.00343274 0.0201439,0.00652331 0.0315459,0.00939312 0.0483674,0.0122077 0.106305,0.0123954 0.154826,0.000143491 0.0254972,-0.00643501 0.0506633,-0.0153314 0.0737873,-0.027473 0.0291617,-0.0152983 0.0376277,-0.0222742 0.0612485,-0.0407293 0.00238415,-0.00186538 0.0032451,-0.00305746 0.00533123,-0.00472416 0.00240623,-0.00193161 0.00310161,-0.0025718 0.00529812,-0.00475727l0.0107839 -0.0100333c0.0226715,-0.0226715 0.0482239,-0.0564029 0.0617783,-0.0847257 0.0112695,-0.0235546 0.0197355,-0.0448464 0.0262257,-0.0707188 0.0126382,-0.0503873 0.0128369,-0.106724 0.000143491,-0.157122 -0.0054085,-0.0214905 -0.0121967,-0.0417448 -0.0210711,-0.0600785 -0.00858737,-0.0177597 -0.0144153,-0.0289851 -0.0251992,-0.0451775 -0.00865359,-0.0129583 -0.0132122,-0.0177377 -0.021943,-0.0290403 -0.0197355,-0.0255413 -0.06052,-0.0588422 -0.0881143,-0.0741957 -0.00453651,-0.00251661 -0.00841076,-0.00465793 -0.0129142,-0.00718557 -0.0192498,-0.0107728 -0.0517118,-0.0221528 -0.0742068,-0.027771 -0.0732134,-0.0183116 -0.157045,-0.00937105 -0.223581,0.0241727 -0.0261595,0.0131791 -0.0445594,0.0254089 -0.0673634,0.0439413 -0.0102872,0.00835557 -0.0318439,0.0295812 -0.0405196,0.0406299 -0.00311264,0.00395151 -0.00594935,0.00722972 -0.00902888,0.0110819 -0.00306849,0.00385217 -0.00590519,0.00782576 -0.00880812,0.0120201 -0.00160047,0.00229585 -0.00252764,0.00377491 -0.00412812,0.00591623 -0.00886331,0.0118545 -0.0189849,0.032153 -0.0254862,0.045608 -0.0177818,0.0367115 -0.03042,0.0883792 -0.03042,0.13189zm0.299465 -0.203238l0 0.259255c0,0.0164352 0.0173072,0.0337534 0.0337424,0.0337534 0.0182675,0 0.0213029,-0.00492284 0.0364135,-0.0138744l0.0332788 -0.0205744c0.00199783,-0.00119208 0.00380802,-0.00218547 0.00586104,-0.00347689l0.0168546 -0.0104307c0.00885227,-0.00525397 0.0669881,-0.0402436 0.0718999,-0.0451665 0.0244596,-0.0244486 0.0043268,-0.0630366 -0.024272,-0.0630366 -0.0155853,0 -0.018709,0.00402878 -0.030111,0.010817 -0.00779265,0.00462482 -0.01521,0.00929378 -0.0232565,0.0140842 -0.0130135,0.0077485 -0.0347799,0.0220645 -0.0464468,0.0282456 0,-0.0430914 0,-0.0861827 0,-0.129274 0,-0.018422 0.00154528,-0.0475506 -0.000816793,-0.0638092 -0.00219651,-0.0150665 -0.0169981,-0.0302655 -0.0343715,-0.0302655 -0.0118214,0 -0.0200225,0.00238415 -0.0282125,0.0105742 -0.00464689,0.00465793 -0.0105631,0.0143049 -0.0105631,0.0231793z"/>
 </g>
</svg>
