<?xml version="1.0" encoding="UTF-8"?>
<!DOCTYPE svg PUBLIC "-//W3C//DTD SVG 1.1//EN" "http://www.w3.org/Graphics/SVG/1.1/DTD/svg11.dtd">
<!-- Creator: CorelDRAW X5 -->
<svg xmlns="http://www.w3.org/2000/svg" xml:space="preserve" width="6mm" height="5.9686mm" style="shape-rendering:geometricPrecision; text-rendering:geometricPrecision; image-rendering:optimizeQuality; fill-rule:evenodd; clip-rule:evenodd"
viewBox="0 0 0.102469 0.101933"
 xmlns:xlink="http://www.w3.org/1999/xlink">
 <defs>
  <style type="text/css">
   <![CDATA[
    .fil0 {fill:#B0CB1F;fill-rule:nonzero}
   ]]>
  </style>
 </defs>
 <g id="Слой_x0020_1">
  <metadata id="CorelCorpID_0Corel-Layer"/>
  <path class="fil0" d="M0.0720838 0.0713426l0 0 0.00166513 -0.00166513c0.00693718,-0.00693718 0.0148137,-0.0060252 0.0235663,0.00272739 0.003361,0.003361 0.00505857,0.00614987 0.00514909,0.00841957 9.22225e-005,0.0022697 -0.00142262,0.00499538 -0.00454281,0.00811728l-0.00193838 0.00193667c-0.00199986,-0.00405779 -0.00421149,-0.00729924 -0.00666393,-0.00975167 -0.00469481,-0.00469651 -0.0104502,-0.007967 -0.0172354,-0.00978412zm-0.0216706 -0.0707893c0.0275506,0 0.0498838,0.0223315 0.0498872,0.0498838l-0.00781329 0c3.41565e-006,-0.0232384 -0.0188373,-0.0420739 -0.0420739,-0.0420739l0 -0.00780988zm0 0.0234313c0.0146087,0 0.0264525,0.011842 0.0264525,0.0264525l0.00781329 0c0,-0.0189244 -0.0153431,-0.0342641 -0.0342658,-0.0342641l0 0.00781158zm-0.0395088 -0.0178809l0 0 0.00215015 -0.00214844c0.00278375,-0.00278888 0.00533182,-0.00412098 0.00756907,-0.00393824 0.00227482,0.000153704 0.00500051,0.00184957 0.0082078,0.00505857 0.00893875,0.00893362 0.0101171,0.0166564 0.00360692,0.0231683l-0.00208867 0.00209038c-0.0019418,-0.00660244 -0.00542234,-0.0123868 -0.0103904,-0.0173532 -0.00278888,-0.00278888 -0.00584588,-0.00505857 -0.00905488,-0.00681422l0 -6.31895e-005zm-0.0109045 0.0209601l0 0c0.00157291,-0.00654267 0.00457697,-0.0128719 0.00890459,-0.0189603 0.00330293,0.00208867 0.00627113,0.004454 0.00884311,0.00702599 0.00439081,0.00439081 0.00784403,0.0101462 0.010387,0.0173549l-0.000966628 0.000970044c-0.00448133,0.00448304 6.14816e-005,0.0135072 0.0136284,0.0270775 0.0140537,0.014052 0.0233203,0.0187775 0.0278068,0.0142962l0.000966628 -0.000971751c0.00733169,0.0019418 0.0132373,0.00512176 0.0177187,0.00960309 0.00272739,0.00272569 0.00493903,0.00590565 0.00657341,0.0095399 -0.00557263,0.00399631 -0.0118728,0.0069628 -0.0189312,0.00893362 -0.00787136,-0.00357277 -0.0154456,-0.00793284 -0.0227448,-0.0131127 -0.00729924,-0.00517812 -0.0143252,-0.0111162 -0.0210506,-0.0178399 -0.0068757,-0.0068757 -0.0129351,-0.0139632 -0.0180807,-0.0212914 -0.00517983,-0.00730265 -0.00951087,-0.0149025 -0.0130546,-0.0226867l0 6.14816e-005z"/>
 </g>
</svg>
