<?xml version="1.0" encoding="UTF-8"?>
<!DOCTYPE svg PUBLIC "-//W3C//DTD SVG 1.1//EN" "http://www.w3.org/Graphics/SVG/1.1/DTD/svg11.dtd">
<!-- Creator: CorelDRAW X5 -->
<svg xmlns="http://www.w3.org/2000/svg" xml:space="preserve" width="12.0269mm" height="12.0269mm" style="shape-rendering:geometricPrecision; text-rendering:geometricPrecision; image-rendering:optimizeQuality; fill-rule:evenodd; clip-rule:evenodd"
viewBox="0 0 0.48179 0.48179"
 xmlns:xlink="http://www.w3.org/1999/xlink">
 <defs>
  <style type="text/css">
   <![CDATA[
    .fil1 {fill:#FEFEFE;fill-rule:nonzero}
    .fil0 {fill:url(#id0)}
   ]]>
  </style>
  <linearGradient id="id0" gradientUnits="userSpaceOnUse" x1="0.444799" y1="0.431616" x2="0.0369908" y2="0.0501743">
   <stop offset="0" style="stop-color:#8BBF4C"/>
   <stop offset="1" style="stop-color:#0F85C7"/>
  </linearGradient>
 </defs>
 <g id="Слой_x0020_1">
  <metadata id="CorelCorpID_0Corel-Layer"/>
  <circle class="fil0" cx="0.240895" cy="0.240895" r="0.240895"/>
  <path class="fil1" d="M0.258407 0.0975726l0.058026 0.0460042 0.00419421 0.00332493 -0.00333294 0.00420223 -0.0415576 0.0524177c0.0167007,0.00955015 0.0302889,0.022934 0.039831,0.0386292 0.0100188,0.0164844 0.0155631,0.0354806 0.0155631,0.0552258 0,0.00927374 -0.00122982,0.0184874 -0.00363338,0.0274206 -0.00174258,0.00648962 -0.0041181,0.012839 -0.00710252,0.0189641l0.0461724 0 0 0.0107359 -0.268402 0 0 -0.0107359 0.210175 0c0.00382166,-0.00687819 0.00677003,-0.014177 0.00880104,-0.0217322 0.00215119,-0.00799985 0.00325282,-0.0162841 0.00325282,-0.0246525 0,-0.0178024 -0.00497537,-0.0348957 -0.0139687,-0.0496896 -0.00886514,-0.0145776 -0.0216481,-0.026972 -0.0374315,-0.0356608l-0.0596324 0.0752114 -0.00332092 0.00419421 -0.00420623 -0.00333294 -0.0102231 -0.00810801 -0.0142371 0.0179586 -0.00332493 0.00419421 -0.00420223 -0.00333694 -0.0291672 -0.0231223 -0.00419021 -0.00332092 0.00333294 -0.00420623 0.0142251 -0.0179466 -0.0102352 -0.00811603 -0.00419421 -0.00332092 0.00333294 -0.00420623 0.107928 -0.136134 0.00332493 -0.00419421 0.00420223 0.00333294zm-0.147471 0.223631l4.00594e-006 0 0.0956657 0 0 0.0107359 -0.0956657 0 -4.00594e-006 0 0 -0.0107359zm0.0722791 -0.0478709l-0.0165285 -0.0131034 -0.00424229 -0.00336098 -0.0109042 0.0137524 0.0207708 0.0164684 0.0109042 -0.0137564zm-0.0158675 -0.0262549l0.0267276 0.0211914 0.00419421 0.00332493 0 0 0.00603294 0.00478309 0.10127 -0.127737 -0.0496295 -0.0393463 -0.10127 0.127737 0.0126748 0.0100469zm0.107235 -0.170721l0.0588192 0.0466331 -0.00666588 0.00838442 -0.0588192 -0.0466331 0.00666588 -0.00838442z"/>
 </g>
</svg>
