<?xml version="1.0" encoding="UTF-8"?>
<!DOCTYPE svg PUBLIC "-//W3C//DTD SVG 1.1//EN" "http://www.w3.org/Graphics/SVG/1.1/DTD/svg11.dtd">
<!-- Creator: CorelDRAW X5 -->
<svg xmlns="http://www.w3.org/2000/svg" xml:space="preserve" width="6.0002mm" height="6.024mm" style="shape-rendering:geometricPrecision; text-rendering:geometricPrecision; image-rendering:optimizeQuality; fill-rule:evenodd; clip-rule:evenodd"
viewBox="0 0 0.125985 0.126484"
 xmlns:xlink="http://www.w3.org/1999/xlink">
 <defs>
  <style type="text/css">
   <![CDATA[
    .fil0 {fill:#B0CB1F;fill-rule:nonzero}
   ]]>
  </style>
 </defs>
 <g id="Слой_x0020_1">
  <metadata id="CorelCorpID_0Corel-Layer"/>
  <path class="fil0" d="M0.0183721 0.00083567c0.0155964,-0.00166714 0.030966,-0.00031915 0.0477487,-0.00031915 0.00711999,0 0.0156363,0 0.0237137,0 0.00850578,0 0.0168037,-0.000493423 0.0224329,0.0012808 0.00608905,0.0019191 0.0102905,0.00619194 0.0121781,0.0108952 0.00225295,0.00561243 0.0012829,0.0183428 0.0012829,0.0246775 0,0.0156909 0,0.0345942 0,0.0519144 0,0.00809634 0.00110233,0.0185863 -0.0012829,0.0246754 -0.00181202,0.00462768 -0.00689113,0.00990206 -0.0128185,0.0115377 -0.00633892,0.00174693 -0.0160751,0.000640401 -0.0243562,0.000640401 -0.0169969,0 -0.0325701,0 -0.0499911,0 -0.0181454,0 -0.0295802,0.00114432 -0.0352514,-0.0112165 -0.00263089,-0.00573421 -0.0019233,-0.0158504 -0.0019233,-0.0249966 0,-0.0191763 0,-0.0349197 0,-0.0538377 0,-0.00744124 -0.00077478,-0.0189013 0.0019233,-0.0246754 0.00283456,-0.00606596 0.00919867,-0.00981178 0.0163439,-0.0105761zm0.0298028 0.0416617l0 0c0.00150337,0.00166504 0.00329859,0.00104564 0.004487,0.00352325 0.00229284,0.00478936 0.00141518,0.0150967 -0.00160205,0.0176268 -0.00718928,-0.00445551 -0.00976348,-0.013524 -0.0137802,-0.02115 -0.00431273,-0.00152436 -0.0132489,-0.00110653 -0.0176268,0.00031915 0.00278627,0.00978028 0.00868215,0.0193863 0.0147418,0.0282007 0.00731316,0.0106369 0.0178829,0.0208897 0.0352514,0.0166651 0.00135219,-0.00368283 -1.88971e-005,-0.00972149 0.0038466,-0.0102548 0.00243142,-0.000335948 0.00436732,0.00233694 0.00544655,0.00352535 0.00266869,0.00293534 0.00474736,0.00671476 0.00865276,0.00769111 0.00359884,0.000896561 0.0175785,0.00083777 0.0182672,-0.0025637 0.000617304,-0.00305083 -0.00459619,-0.00812154 -0.0064103,-0.00993566 -0.00228864,-0.00228864 -0.00755043,-0.00568382 -0.00769111,-0.00865276 -0.000163775,-0.00349806 0.00602186,-0.00932255 0.00769111,-0.0115356 0.0032167,-0.00426024 0.00546755,-0.00657408 0.0064103,-0.0131398 -0.00420145,-0.00222145 -0.0126883,-0.000352745 -0.0192288,-0.000961651 -0.00246922,0.00341827 -0.00353585,0.00750423 -0.00608905,0.0118569 -0.00170703,0.00291435 -0.0101477,0.0166462 -0.010574,0.004487 -0.000155376,-0.00440722 0.00103304,-0.0122159 0,-0.0163439 -0.00402507,-0.00342247 -0.01858,-0.00355895 -0.0217925,0.0006425z"/>
 </g>
</svg>
